<mxfile host="Electron" agent="Mozilla/5.0 (Macintosh; Intel Mac OS X 10_15_7) AppleWebKit/537.36 (KHTML, like Gecko) draw.io/24.7.5 Chrome/126.0.6478.183 Electron/31.3.0 Safari/537.36" version="24.7.5">
  <diagram name="Page-1" id="Y3y06kTH9cHK7tdWBqL3">
    <mxGraphModel dx="1193" dy="736" grid="1" gridSize="10" guides="1" tooltips="1" connect="1" arrows="1" fold="1" page="1" pageScale="1" pageWidth="827" pageHeight="1169" math="0" shadow="0">
      <root>
        <mxCell id="0" />
        <mxCell id="1" parent="0" />
        <mxCell id="WEBgAtE9ghbhXC9Hbvk1-1" value="&lt;div style=&quot;background-color:#ffffff;color:#080808&quot;&gt;&lt;pre style=&quot;font-family:&#39;JetBrains Mono&#39;,monospace;font-size:9.8pt;&quot;&gt;&lt;span style=&quot;color:#000000;&quot;&gt;PlayerPiece &lt;/span&gt;&lt;span style=&quot;color:#871094;&quot;&gt;playerPiece&lt;/span&gt;;&lt;br&gt;&lt;/pre&gt;&lt;/div&gt;" style="rounded=0;whiteSpace=wrap;html=1;strokeWidth=3;" vertex="1" parent="1">
          <mxGeometry x="350" y="430" width="250" height="80" as="geometry" />
        </mxCell>
        <mxCell id="WEBgAtE9ghbhXC9Hbvk1-2" value="&lt;div style=&quot;background-color:#ffffff;color:#080808&quot;&gt;&lt;pre style=&quot;font-family:&#39;JetBrains Mono&#39;,monospace;font-size:9.8pt;&quot;&gt;&lt;span style=&quot;color:#000000;&quot;&gt;PlayerPiece&lt;/span&gt;[][] &lt;span style=&quot;color:#871094;&quot;&gt;playerPieces&lt;/span&gt;;&lt;br&gt;&lt;span style=&quot;color:#0033b3;&quot;&gt;int &lt;/span&gt;&lt;span style=&quot;color:#871094;&quot;&gt;row&lt;/span&gt;;&lt;br&gt;&lt;span style=&quot;color:#0033b3;&quot;&gt;int &lt;/span&gt;&lt;span style=&quot;color:#871094;&quot;&gt;column&lt;/span&gt;;&lt;/pre&gt;&lt;pre style=&quot;font-family:&#39;JetBrains Mono&#39;,monospace;font-size:9.8pt;&quot;&gt;&lt;div&gt;&lt;pre style=&quot;font-family:&#39;JetBrains Mono&#39;,monospace;font-size:9.8pt;&quot;&gt;&lt;span style=&quot;color:#00627a;&quot;&gt;printBoard&lt;/span&gt;();&lt;/pre&gt;&lt;pre style=&quot;font-family:&#39;JetBrains Mono&#39;,monospace;font-size:9.8pt;&quot;&gt;&lt;div&gt;&lt;pre style=&quot;font-family:&#39;JetBrains Mono&#39;,monospace;font-size:9.8pt;&quot;&gt;&lt;span style=&quot;color:#00627a;&quot;&gt;playerRoll&lt;/span&gt;(&lt;span style=&quot;color:#0033b3;&quot;&gt;int &lt;/span&gt;&lt;span style=&quot;color:#000000;&quot;&gt;x&lt;/span&gt;, &lt;span style=&quot;color:#0033b3;&quot;&gt;int &lt;/span&gt;&lt;span style=&quot;color:#000000;&quot;&gt;y&lt;/span&gt;, &lt;span style=&quot;color:#000000;&quot;&gt;Player player&lt;/span&gt;);&lt;/pre&gt;&lt;pre style=&quot;font-family:&#39;JetBrains Mono&#39;,monospace;font-size:9.8pt;&quot;&gt;&lt;div&gt;&lt;pre style=&quot;font-family:&#39;JetBrains Mono&#39;,monospace;font-size:9.8pt;&quot;&gt;&lt;span style=&quot;color:#00627a;&quot;&gt;isGameWon&lt;/span&gt;();&lt;/pre&gt;&lt;/div&gt;&lt;/pre&gt;&lt;/div&gt;&lt;/pre&gt;&lt;/div&gt;&lt;/pre&gt;&lt;/div&gt;" style="rounded=0;whiteSpace=wrap;html=1;strokeWidth=3;" vertex="1" parent="1">
          <mxGeometry x="880" y="360" width="420" height="190" as="geometry" />
        </mxCell>
        <mxCell id="WEBgAtE9ghbhXC9Hbvk1-3" value="&lt;div style=&quot;background-color:#ffffff;color:#080808&quot;&gt;&lt;pre style=&quot;font-family:&#39;JetBrains Mono&#39;,monospace;font-size:9.8pt;&quot;&gt;&lt;span style=&quot;color:#871094;font-style:italic;&quot;&gt;X&lt;/span&gt;,&lt;br&gt;&lt;span style=&quot;color:#871094;font-style:italic;&quot;&gt;O&lt;/span&gt;;&lt;/pre&gt;&lt;/div&gt;" style="rounded=0;whiteSpace=wrap;html=1;strokeWidth=3;" vertex="1" parent="1">
          <mxGeometry x="660" y="607" width="120" height="60" as="geometry" />
        </mxCell>
        <mxCell id="WEBgAtE9ghbhXC9Hbvk1-4" value="&lt;font style=&quot;font-size: 16px;&quot;&gt;Player&lt;/font&gt;" style="text;html=1;align=center;verticalAlign=middle;resizable=0;points=[];autosize=1;strokeColor=none;fillColor=none;" vertex="1" parent="1">
          <mxGeometry x="425" y="400" width="70" height="30" as="geometry" />
        </mxCell>
        <mxCell id="WEBgAtE9ghbhXC9Hbvk1-5" value="&lt;span style=&quot;text-wrap: wrap;&quot;&gt;&lt;font style=&quot;font-size: 16px;&quot;&gt;PlayingPiece&lt;/font&gt;&lt;/span&gt;" style="text;html=1;align=center;verticalAlign=middle;resizable=0;points=[];autosize=1;strokeColor=none;fillColor=none;" vertex="1" parent="1">
          <mxGeometry x="660" y="585" width="120" height="30" as="geometry" />
        </mxCell>
        <mxCell id="WEBgAtE9ghbhXC9Hbvk1-6" value="&lt;font style=&quot;font-size: 16px;&quot;&gt;Board&lt;/font&gt;" style="text;html=1;align=center;verticalAlign=middle;resizable=0;points=[];autosize=1;strokeColor=none;fillColor=none;" vertex="1" parent="1">
          <mxGeometry x="1045" y="330" width="70" height="30" as="geometry" />
        </mxCell>
        <mxCell id="WEBgAtE9ghbhXC9Hbvk1-11" value="&lt;div style=&quot;background-color:#ffffff;color:#080808&quot;&gt;&lt;pre style=&quot;font-family:&#39;JetBrains Mono&#39;,monospace;font-size:9.8pt;&quot;&gt;&lt;span style=&quot;color:#000000;&quot;&gt;Board &lt;/span&gt;&lt;span style=&quot;color:#871094;&quot;&gt;board &lt;/span&gt;= &lt;span style=&quot;color:#0033b3;&quot;&gt;new &lt;/span&gt;Board(&lt;span style=&quot;color:#1750eb;&quot;&gt;3&lt;/span&gt;);&lt;br&gt;&lt;span style=&quot;color:#000000;&quot;&gt;Player &lt;/span&gt;&lt;span style=&quot;color:#871094;&quot;&gt;player_X &lt;/span&gt;= &lt;span style=&quot;color:#0033b3;&quot;&gt;new &lt;/span&gt;Player(&lt;span style=&quot;color:#000000;&quot;&gt;PlayerPiece&lt;/span&gt;.&lt;span style=&quot;color:#871094;font-style:italic;&quot;&gt;X&lt;/span&gt;);&lt;br&gt;&lt;span style=&quot;color:#000000;&quot;&gt;Player &lt;/span&gt;&lt;span style=&quot;color:#871094;&quot;&gt;player_O &lt;/span&gt;= &lt;span style=&quot;color:#0033b3;&quot;&gt;new &lt;/span&gt;Player(&lt;span style=&quot;color:#000000;&quot;&gt;PlayerPiece&lt;/span&gt;.&lt;span style=&quot;color:#871094;font-style:italic;&quot;&gt;O&lt;/span&gt;);&lt;br&gt;&lt;/pre&gt;&lt;pre style=&quot;font-family:&#39;JetBrains Mono&#39;,monospace;font-size:9.8pt;&quot;&gt;&lt;div&gt;&lt;pre style=&quot;font-family:&#39;JetBrains Mono&#39;,monospace;font-size:9.8pt;&quot;&gt;&lt;span style=&quot;color:#00627a;&quot;&gt;gameStart&lt;/span&gt;();&lt;/pre&gt;&lt;/div&gt;&lt;/pre&gt;&lt;/div&gt;" style="rounded=0;whiteSpace=wrap;html=1;strokeWidth=3;" vertex="1" parent="1">
          <mxGeometry x="525" y="190" width="390" height="80" as="geometry" />
        </mxCell>
        <mxCell id="WEBgAtE9ghbhXC9Hbvk1-12" value="&lt;font style=&quot;font-size: 16px;&quot;&gt;Game&lt;/font&gt;" style="text;html=1;align=center;verticalAlign=middle;resizable=0;points=[];autosize=1;strokeColor=none;fillColor=none;" vertex="1" parent="1">
          <mxGeometry x="675" y="160" width="70" height="30" as="geometry" />
        </mxCell>
        <mxCell id="WEBgAtE9ghbhXC9Hbvk1-13" value="" style="endArrow=classic;html=1;rounded=0;exitX=0.5;exitY=1;exitDx=0;exitDy=0;entryX=0;entryY=0.5;entryDx=0;entryDy=0;strokeWidth=4;" edge="1" parent="1" source="WEBgAtE9ghbhXC9Hbvk1-1" target="WEBgAtE9ghbhXC9Hbvk1-3">
          <mxGeometry width="50" height="50" relative="1" as="geometry">
            <mxPoint x="610" y="350" as="sourcePoint" />
            <mxPoint x="660" y="300" as="targetPoint" />
            <Array as="points">
              <mxPoint x="475" y="637" />
            </Array>
          </mxGeometry>
        </mxCell>
        <mxCell id="WEBgAtE9ghbhXC9Hbvk1-14" value="" style="endArrow=classic;html=1;rounded=0;exitX=0.5;exitY=1;exitDx=0;exitDy=0;entryX=1;entryY=0.5;entryDx=0;entryDy=0;strokeWidth=4;" edge="1" parent="1" source="WEBgAtE9ghbhXC9Hbvk1-2" target="WEBgAtE9ghbhXC9Hbvk1-3">
          <mxGeometry width="50" height="50" relative="1" as="geometry">
            <mxPoint x="960" y="670" as="sourcePoint" />
            <mxPoint x="1010" y="620" as="targetPoint" />
            <Array as="points">
              <mxPoint x="1090" y="640" />
            </Array>
          </mxGeometry>
        </mxCell>
        <mxCell id="WEBgAtE9ghbhXC9Hbvk1-15" value="" style="endArrow=classic;html=1;rounded=0;exitX=1;exitY=0.5;exitDx=0;exitDy=0;entryX=0.75;entryY=0;entryDx=0;entryDy=0;strokeWidth=4;" edge="1" parent="1" source="WEBgAtE9ghbhXC9Hbvk1-11" target="WEBgAtE9ghbhXC9Hbvk1-2">
          <mxGeometry width="50" height="50" relative="1" as="geometry">
            <mxPoint x="610" y="350" as="sourcePoint" />
            <mxPoint x="660" y="300" as="targetPoint" />
            <Array as="points">
              <mxPoint x="1195" y="230" />
            </Array>
          </mxGeometry>
        </mxCell>
        <mxCell id="WEBgAtE9ghbhXC9Hbvk1-16" value="" style="endArrow=classic;html=1;rounded=0;entryX=0.25;entryY=0;entryDx=0;entryDy=0;exitX=0;exitY=0.5;exitDx=0;exitDy=0;strokeWidth=4;" edge="1" parent="1" source="WEBgAtE9ghbhXC9Hbvk1-11" target="WEBgAtE9ghbhXC9Hbvk1-1">
          <mxGeometry width="50" height="50" relative="1" as="geometry">
            <mxPoint x="330" y="340" as="sourcePoint" />
            <mxPoint x="660" y="300" as="targetPoint" />
            <Array as="points">
              <mxPoint x="410" y="230" />
            </Array>
          </mxGeometry>
        </mxCell>
      </root>
    </mxGraphModel>
  </diagram>
</mxfile>
